# AST/ASF file generated using VICON BodyLanguage
# -----------------------------------------------
:version 1.10
:name VICON
:units
  mass 1.0
  length 0.45
  angle deg
:documentation
   .ast/.asf automatically generated from VICON data using
   VICON BodyBuilder and BodyLanguage model FoxedUp or BRILLIANT.MOD
:root
   order TX TY TZ RX RY RZ
   axis XYZ
   position 0 0 0  
   orientation 0 0 0 
:bonedata
  begin
     id 1 
     name lhipjoint
     direction 0.623529 -0.717805 0.309788 
     length 2.23224 
     axis 0 0 0  XYZ
  end
  begin
     id 2 
     name lfemur
     direction 0.34202 -0.939693 0  
     length 7.11402  
     axis 0 0 20  XYZ
    dof rx ry rz
    limits (-160.0 20.0)
           (-70.0 70.0)
           (-60.0 70.0)
  end
  begin
     id 3 
     name ltibia
     direction 0.34202 -0.939693 0   
     length 6.78496   
     axis 0 0 20   XYZ
    dof rx
    limits (-10.0 170.0)
  end
  begin
     id 4 
     name lfoot
     direction 0.125078 -0.343648 0.930732   
     length 1.84054   
     axis -90 7.62852e-016 20   XYZ
    dof rx rz
    limits (-45.0 90.0)
           (-70.0 20.0)
  end
  begin
     id 5 
     name ltoes
     direction 1.53565e-011 -4.21893e-011 1   
     length 0.916474   
     axis -90 7.62852e-016 20   XYZ
    dof rx
    limits (-90.0 20.0)
  end
  begin
     id 6 
     name rhipjoint
     direction -0.564688 -0.757748 0.327026   
     length 2.11457  
     axis 0 0 0  XYZ 
  end
  begin
     id 7 
     name rfemur
     direction -0.34202 -0.939693 0   
     length 7.14609   
     axis 0 0 -20   XYZ
    dof rx ry rz
    limits (-160.0 20.0)
           (-70.0 70.0)
           (-70.0 60.0)
  end
  begin
     id 8 
     name rtibia
     direction -0.34202 -0.939693 0   
     length 6.78101   
     axis 0 0 -20   XYZ
    dof rx
    limits (-10.0 170.0)
 end
 begin
     id 9 
     name rfoot
     direction -0.0992671 -0.272734 0.956955   
     length 1.96168  
     axis -90 -7.62852e-016 -20   XYZ
    dof rx rz
    limits (-45.0 90.0)
           (-20.0 70.0)
  end
  begin
     id 10 
     name rtoes
     direction -1.5356e-011 -4.21891e-011 1   
     length 0.982933   
     axis -90 -7.62852e-016 -20   XYZ
    dof rx
    limits (-90.0 20.0)
  end
  begin
     id 11 
     name lowerback
     direction -0.00596953 0.998668 0.0512524   
     length 1.87557   
     axis 0 0 0   XYZ
    dof rx ry rz
    limits (-20.0 45.0)
           (-30.0 30.0)
           (-30.0 30.0)
  end
  begin
     id 12 
     name upperback
     direction 0.00584879 0.999652 0.0257308   
     length 1.87883   
     axis 0 0 0   XYZ
    dof rx ry rz
    limits (-20.0 45.0)
           (-30.0 30.0)
           (-30.0 30.0)
  end
  begin
     id 13 
     name thorax
     direction 0.010104 0.999947 0.00178881   
     length 1.87779   
     axis 0 0 0   XYZ
    dof rx ry rz
    limits (-20.0 45.0)
           (-30.0 30.0)
           (-30.0 30.0)
  end
  begin
     id 14 
     name lowerneck
     direction 0.0120771 0.995934 -0.0892773   
     length 1.40897   
     axis 0 0 0   XYZ
    dof rx ry rz
    limits (-20.0 45.0)
           (-30.0 30.0)
           (-30.0 30.0)
  end
  begin
     id 15 
     name upperneck
     direction -0.030568 0.999465 -0.0116366   
     length 1.38661   
     axis 0 0 0   XYZ
    dof rx ry rz
    limits (-20.0 45.0)
           (-30.0 30.0)
           (-30.0 30.0)
  end
  begin
     id 16
     name head
     direction -0.0170715 0.999854 -0.00104426  
     length 1.47052  
     axis 0 0 0   XYZ
    dof rx ry rz
    limits (-20.0 45.0)
           (-30.0 30.0)
           (-30.0 30.0)
  end
  begin
     id 17 
     name lclavicle
     direction 0.977763 0.206143 0.038532  
     length 3.02424  
     axis 0 0 0   XYZ
    dof ry rz
    limits (-20.0 10.0)
           (0.0 20.0)
  end
  begin
     id 18 
     name lhumerus
     direction 1 -4.48965e-011 -2.62654e-027   
     length 4.68382   
     axis 180 -30 -90   XYZ
    dof rx ry rz
    limits (-60.0 90.0)
           (-90.0 90.0)
           (-90.0 90.0)
  end
  begin
     id 19
     name lradius
     direction 1 -4.48973e-011 -1.54954e-027   
     length 2.98124   
     axis 180 -30 -90   XYZ
    dof rx
    limits (-10.0 170.0)
  end
  begin
     id 20
     name lwrist
     direction 1 -4.48959e-011 7.20928e-028   
     length 1.49062   
     axis -5.52449e-016 90 90   XYZ
    dof ry
    limits (-180.0 0.0)
 end
  begin
     id 21 
     name lhand
     direction 1 -4.48971e-011 1.44186e-027   
     length 0.707595   
     axis -9.20027e-016 90 90   XYZ
    dof rx rz
    limits (-90.0 90.0)
           (-45.0 45.0)
  end
  begin
     id 22 
     name lfingers
     direction 1 -4.48985e-011 2.88371e-027   
     length 0.570481   
     axis -1.84005e-015 90 90   XYZ
    dof rx
    limits (0.0 90.0)
  end
  begin
     id 23
     name lthumb
     direction 0.707107 -6.34929e-011 0.707107   
     length 0.819101   
     axis -90 45 2.85299e-015   XYZ
    dof rx rz
    limits (-45.0 45.0)
           (-45.0 45.0)
  end
  begin
     id 24 
     name rclavicle
     direction -0.958661 0.284411 -0.00895327   
     length 3.11921  
     axis 0 0 0   XYZ 
    dof ry rz
    limits (-10.0 20.0)
           (-20.0 0.0)
  end
  begin
     id 25 
     name rhumerus
     direction -1 -4.48963e-011 -4.22193e-027  
     length 4.75876   
     axis 180 30 90   XYZ
    dof rx ry rz
    limits (-90.0 60.0)
           (-90.0 90.0)
           (-90.0 90.0)
  end
  begin
     id 26 
     name rradius
     direction -1 -4.48968e-011 -1.07616e-027   
     length 2.93293   
     axis 180 30 90   XYZ
    dof rx
    limits (-10.0 170.0)
  end
  begin
     id 27 
     name rwrist
     direction -1 -4.48965e-011 7.20928e-028   
     length 1.46647   
     axis -5.52449e-016 -90 -90   XYZ
    dof ry
    limits (-180.0 0.0)
  end
  begin
     id 28
     name rhand
     direction -1 -4.48971e-011 1.44186e-027   
     length 0.831748   
     axis -9.20027e-016 -90 -90   XYZ
    dof rx rz
    limits (-90.0 90.0)
           (-45.0 45.0)
  end
  begin
     id 29
     name rfingers
     direction -1 -4.48961e-011 2.88371e-027   
     length 0.670577   
     axis -1.84005e-015 -90 -90   XYZ
    dof rx
    limits (0.0 90.0)
  end
  begin
     id 30
     name rthumb
     direction -0.707107 -6.34929e-011 0.707107   
     length 0.962818   
     axis -90 -45 -2.85299e-015   XYZ
    dof rx rz
    limits (-45.0 45.0)
           (-45.0 45.0)
  end
:hierarchy
  begin
    root lhipjoint rhipjoint lowerback
    lhipjoint lfemur
    lfemur ltibia
    ltibia lfoot
    lfoot ltoes
    rhipjoint rfemur
    rfemur rtibia
    rtibia rfoot
    rfoot rtoes
    lowerback upperback
    upperback thorax
    thorax lowerneck lclavicle rclavicle
    lowerneck upperneck
    upperneck head
    lclavicle lhumerus
    lhumerus lradius
    lradius lwrist
    lwrist lhand lthumb
    lhand lfingers
    rclavicle rhumerus
    rhumerus rradius
    rradius rwrist
    rwrist rhand rthumb
    rhand rfingers
  end

#!OML:ASF E:\id_vita\Project 1\Capture day 1\Session 1\Female.ASF
:FULLY-SPECIFIED
:DEGREES
687
root 33.0091 16.8264 -9.76178 -149.28 62.0857 182.35
lowerback -14.7022 -0.517336 -8.05236
upperback -4.8959 0.892747 -1.25204
thorax 2.94705 0.630719 3.38506
lowerneck -0.0133568 -1.05722 -6.77721
upperneck -20.7783 1.13762 10.847
head -6.29611 0.731741 4.55124
rclavicle 6.36111e-015 6.36111e-015
rhumerus 56.4339 -23.2226 -46.0619
rradius 44.695
rwrist -0.267649
rhand -33.0867 14.8326
rfingers 7.12502
rthumb -6.29794 -15.0537
lclavicle 6.36111e-015 6.36111e-015
lhumerus 79.7271 18.5424 50.9984
lradius 28.5359
lwrist -19.5272
lhand -28.3073 28.1822
lfingers 7.12502
lthumb -1.68266 58.1553
rfemur -13.6319 3.87206 26.01
rtibia 18.789
rfoot 3.88644 -9.48243
rtoes -12.4395
lfemur -45.9519 -13.9901 -7.62757
ltibia 22.122
lfoot -23.8011 -8.05576
ltoes -28.3735
688
root 32.9977 16.8329 -9.77898 -149.145 62.075 182.644
lowerback -14.461 -0.487507 -7.77923
upperback -4.89052 0.85972 -1.20554
thorax 2.83152 0.614165 3.27165
lowerneck 0.619166 -1.02265 -6.62816
upperneck -21.332 1.15107 10.5198
head -6.58775 0.730444 4.43217
rclavicle 4.69132e-014 -1.27222e-014
rhumerus 56.6227 -23.056 -46.3269
rradius 44.9369
rwrist -0.28407
rhand -33.008 13.9695
rfingers 7.12502
rthumb -6.22197 -15.9191
lclavicle 4.69132e-014 -1.27222e-014
lhumerus 79.3593 18.7559 50.6098
lradius 28.6228
lwrist -19.3156
lhand -28.2896 27.741
lfingers 7.12502
lthumb -1.66566 57.7142
rfemur -13.5573 3.43346 26.1282
rtibia 18.835
rfoot 3.68479 -9.22601
rtoes -11.5195
lfemur -45.7647 -14.386 -7.35323
ltibia 21.9863
lfoot -23.8286 -7.89458
ltoes -28.1009
689
root 33.0152 16.8291 -9.7793 -148.873 62.1248 183.008
lowerback -14.3987 -0.462505 -7.75187
upperback -5.00249 0.883864 -1.20293
thorax 2.67738 0.637854 3.26085
lowerneck 0.543116 -0.926864 -6.24145
upperneck -21.063 1.22257 10.2278
head -6.49694 0.752102 4.25795
rclavicle 4.13472e-014 7.95139e-016
rhumerus 56.3383 -22.791 -46.36
rradius 45.027
rwrist -1.01021
rhand -33.2313 14.428
rfingers 7.12502
rthumb -6.43751 -15.4542
lclavicle 4.13472e-014 7.95139e-016
lhumerus 78.6995 18.6375 49.4937
lradius 28.8935
lwrist -18.7094
lhand -28.2711 28.3451
lfingers 7.12502
lthumb -1.64771 58.3185
rfemur -13.4507 4.14627 26.2755
rtibia 18.8159
rfoot 4.14851 -9.83033
rtoes -11.0725
lfemur -45.6242 -14.5593 -7.02949
ltibia 21.8993
lfoot -24.0418 -7.73962
ltoes -27.7753
690
root 33.0006 16.8356 -9.80144 -148.609 62.2702 183.352
lowerback -14.277 -0.318285 -7.43676
upperback -5.07057 1.01685 -1.22264
thorax 2.53309 0.709077 3.08158
lowerneck 1.3298 -0.997846 -5.46095
upperneck -21.6478 1.01813 9.34593
head -6.81125 0.630862 3.85839
rclavicle 2.5842e-015 -1.74931e-014
rhumerus 56.3045 -22.8358 -46.4544
rradius 44.91
rwrist -0.699014
rhand -32.9574 15.0974
rfingers 7.12502
rthumb -6.17305 -14.7926
lclavicle 2.5842e-015 -1.74931e-014
lhumerus 77.8988 18.6134 48.1296
lradius 29.395
lwrist -17.1295
lhand -28.2845 29.4565
lfingers 7.12502
lthumb -1.66071 59.4298
rfemur -13.3849 3.40688 26.3526
rtibia 18.7185
rfoot 3.97145 -9.03171
rtoes -10.9943
lfemur -45.5254 -14.7045 -6.87832
ltibia 21.8948
lfoot -24.1014 -7.57641
ltoes -27.5465
691
root 32.9912 16.8443 -9.81588 -148.474 62.4745 183.506
lowerback -14.0555 -0.214543 -7.26633
upperback -5.27019 1.11744 -1.34605
thorax 2.19998 0.779171 2.86534
lowerneck 1.452 -0.943977 -5.24014
upperneck -21.4507 1.10431 9.47792
head -6.77624 0.637156 3.8555
rclavicle 7.89175e-014 7.95139e-015
rhumerus 55.8087 -22.5504 -46.3178
rradius 45.1734
rwrist -0.244062
rhand -33.453 14.0534
rfingers 7.12502
rthumb -6.65151 -15.8221
lclavicle 7.89175e-014 7.95139e-015
lhumerus 78.7987 18.2787 50.5025
lradius 28.9885
lwrist -19.3179
lhand -27.7626 28.2241
lfingers 7.12502
lthumb -1.15659 58.2007
rfemur -13.3777 2.36785 26.3529
rtibia 18.6112
rfoot 3.55707 -8.00845
rtoes -10.7745
lfemur -45.4606 -14.8411 -6.8009
ltibia 21.8822
lfoot -24.0326 -7.33344
ltoes -27.4665
692
root 33.0074 16.8446 -9.81852 -148.36 62.672 183.574
lowerback -14.2468 -0.141567 -7.51353
upperback -5.16533 1.26175 -1.2801
thorax 2.39007 0.841291 3.10066
lowerneck 1.47498 -0.847276 -5.83281
upperneck -21.792 1.35976 10.022
head -6.90975 0.778258 4.13048
rclavicle 1.37161e-014 -1.11319e-014
rhumerus 55.6709 -22.6405 -46.0285
rradius 45.5447
rwrist -0.264756
rhand -33.7049 13.5593
rfingers 7.12502
rthumb -6.89468 -16.3084
lclavicle 1.37161e-014 -1.11319e-014
lhumerus 78.6607 18.3958 49.8031
lradius 28.8817
lwrist -18.3309
lhand -27.8187 27.4864
lfingers 7.12502
lthumb -1.21083 57.4627
rfemur -13.3587 2.50937 26.3525
rtibia 18.5005
rfoot 3.81732 -7.94819
rtoes -11.4072
lfemur -45.4276 -14.8747 -6.69067
ltibia 21.8432
lfoot -24.0223 -7.12273
ltoes -27.5209
693
root 33.0164 16.8457 -9.82597 -148.169 62.9408 183.72
lowerback -14.4741 -0.0629992 -7.68545
upperback -5.10437 1.41111 -1.25281
thorax 2.55464 0.908374 3.25509
lowerneck 1.27207 -0.852768 -5.5613
upperneck -21.6642 1.29933 9.66824
head -6.82833 0.758783 3.96553
rclavicle 1.88845e-014 1.43125e-014
rhumerus 55.6931 -22.7652 -45.9627
rradius 45.4854
rwrist -0.032821
rhand -33.9147 14.1361
rfingers 7.12502
rthumb -7.09725 -15.7249
lclavicle 1.88845e-014 1.43125e-014
lhumerus 78.8334 18.4335 50.3221
lradius 28.741
lwrist -18.4927
lhand -27.6404 26.6148
lfingers 7.12502
lthumb -1.03865 56.592
rfemur -13.302 3.47647 26.2411
rtibia 18.356
rfoot 4.47088 -8.528
rtoes -11.9852
lfemur -45.3799 -14.8126 -6.66655
ltibia 21.8064
lfoot -24.042 -6.91554
ltoes -27.6439
